<mxfile host="app.diagrams.net" modified="2021-07-25T14:27:31.861Z" agent="5.0 (Windows NT 10.0; Win64; x64) AppleWebKit/537.36 (KHTML, like Gecko) Chrome/90.0.4430.93 Safari/537.36" etag="J2-UZulGMXOV0e9maSsG" version="14.8.2" type="github">
  <diagram id="8I0HDq8NNQquMI5i0DuK" name="Page-1">
    <mxGraphModel dx="916" dy="1683" grid="1" gridSize="10" guides="1" tooltips="1" connect="1" arrows="1" fold="1" page="1" pageScale="1" pageWidth="827" pageHeight="1169" math="0" shadow="0">
      <root>
        <mxCell id="0" />
        <mxCell id="1" parent="0" />
        <mxCell id="pyCcSY5dYi0iwdxOa_U7-1" value="" style="rounded=1;whiteSpace=wrap;html=1;strokeColor=#7EA6E0;fillColor=#D4E1F5;" vertex="1" parent="1">
          <mxGeometry x="270" y="-820" width="180" height="320" as="geometry" />
        </mxCell>
        <mxCell id="pyCcSY5dYi0iwdxOa_U7-3" value="" style="shape=image;imageAspect=0;aspect=fixed;verticalLabelPosition=bottom;verticalAlign=top;image=data:image/png,iVBORw0KGgoAAAANSUhEUgAAAEwAAACQCAYAAACia41/AAAAAXNSR0IArs4c6QAAAARnQU1BAACxjwv8YQUAAAAJcEhZcwAAFxEAABcRAcom8z8AAArPSURBVHhe7Z3JjxxXHce/tfTeM9Mz3sYkColDHGcytkfEMkJckKIkSiYKRJCIE+LABQ6IC8qJf4Bbrkg5cOGAhFgSCcMIpJhDIBJRhASCBGETO4vHPT29V1d1Lfx+r6o6bXvG079e7Mz4fdqvq96vqt979XlLj6usMTR3DiPZ7mfE1zDRRb+08lK2+IhXXPshsLb2IPhVp9fl+mV6Z/i9Eu/V6QjFKxXOD8fonDg7EVwEF8VVXr5cp3ootlZB/d24ngF1OvAuxS+j9+b/3uwl0ZGZSNjXzj/99bnj1o/PfL9gnP/q59yT9oPYdBr40Kmi7rXgRwEsw4BhWKhtb6FWr6FUmqNUhGlaqFY/QavVpnPMpMQxoavgC/E9wNn2cf19B4VFG8srBVT/66H5UR+IQkRWhLCWt/tvH8uF9dyrv/nHhdfiAkZnImEvfOmpHyw/VH713I9KOPfF4ziFE9ikLr4SbKLmNZUwk2SYpomtrSq2alsol1lYCZZl4drmJ2i3mur4hE2hTiFhboRuzcfmvxwUl2wcP1PE9fd6aFwlk0Rkh8BWEcFf7kP74/Anv/7nhVfUAQETda0Jo+d6HrpN6kWvh+2wi0bXQXO7h/a2S8lLti46jT6cpo8ubTt1Th4cFQuS5E+eWj567QCeE8DtxmW6nO+GKu9RcumY16cRB3TVRQiZcC58SpRsDzpTEzbZhNo/TE3YvYIWJkQLE6KFCdHChGhhQrQwIVqYEC1MiBYmRAsTooUJ0cKEaGFCtDAhWpgQLUyIFiZECxOihQnRwoRoYUK0MCFamBAtTIgWJkQLE6KFCdHChGhhQrQwIVqYEC1MiBYmRAsTooUJ0cKEaGFCtDAhWpgQLUyIFiZECxOihQnRwoRoYUK0MCFamBAtTIgWJkQLE6KFCdHChGhhQrQwIVqYEC1MiBYmRAsTooUJ0cKEaGFCtDAhWpgQLUyIFiZECxOihQnRwoRoYUK0MCGzE3ZAf7GrHmFCZidsr9+1vE9/F/PUhKXXP/DAO2najdsd+4wyFWHRsJih/cEyNnx8nzOTKZn6SR3t6Wr45EnYrYwpfgHNbA1LHezpYfiE4Q+Nk3Ziyt/WMxPG/4PC7Rp7u2ucCnuJHJOZCbuhsVNu9N1kOsJ2EzIs7YAwuxF2QLl7wvbpyLu7I2wfSpuKMLVUDV+8CsS7ijSfxm4+vo+Y3aKfSkmPDefT2D5kdlNyt5/BUlnp8ZtFTiOlDO9PiTu/hu3xA+1nnTsnbJ+LSrnzI2yfo4UJ0cKEaGFCtDAhWpgQLUyIFiZECxOihQnRwoRoYUK0MCFamBAtTMiowna8k2UZpqsO8R9+1K22vKE3Qu0n8QG8n+SHwxORFjRUtrrdOogP3XpNYkZkqP9/X8qowtIa+fzBZ/wwyKeHInpxWzjH+2pLb9ENT0eI+ITB7lRIC7qhwIE5ig/tJ4QIs8kuc+sJuzDylFxZeeKBx8+svbZy+uyFldNrv3p05cwvan3ne1HI7SRZpkmjyYRJ2zgZMC2qwKLxRvtcU0Q9TaeokaeaqPTTVartZClKtqpsZnjL9ao8vVEHhkGIhuF869HTZ3+5snp249HVs9/hownpJ3fktgeHOb92/ixNr7/m8/mcH/YRUsUlI4ujhwt48NlcdOKxReM++yiaXhdbbgNt36FzQjUlTbLUarfQ7rSQzxeQy+ZVvNmqo9dz1PGJoSsJ/QheJ0Tz4z6yRQuV+7NoXeuju+3H51DnRK0sgvcXolYvNNqWB5t61Xf7F48VKq8c6dl//+nf3ujGJ+/MyMJe/PL6qhEFG5mCseyZPYrEU5B7zsyQFBpF8doVT8hbZyIFODaokXboJBWfJlwNjXouXvUDz4C0irh5FDPUhuNGQK0OMuh7qJLQb/z2rY2LfOpuDJq/Fy+fW1+lVX7DPtZd7lWqiCwfAa8EAYkLTES0DagZZjKiOEXUcl7D1CjjKUsplkRwYynOwlV+CqiLUaJICBcaRrCyvFTQbkB5bgtPW1q9eLmAT21sZSKzMW90qzYCL3jmjXc2/sDF7MbIwl48QyMsE27MrznL9uNbyOQNGs7UGFo83NBDwNOPXrRCIKA1IvAD2LYFy7IQhCyW9Kquv4OQNN+jN/pjZrgT45EfUIzXUxYWVgvAR4voflBw4FvPv/7O7/6UfHpHRha2fuqpVeqtjcdeLi6f/GYWywtLOJKvIIcM3mtdRc1rwjYs9H1PrVe12hYOLx1BpbKIRrOOVqsJx+nGFY5c663QZQ4+zvu7weewmM1/95S0pYeopQUTXjtA7RJ1cD+gzrYQbtEX/Sck7Ep+JGGjr7Yej+gImZyNUqWAymIZhysLOEpC5hdLKC0UUKZ4aSGPQjmLbMFCYS6LMsUL5RxyJZtiJjJFUx2baaIFn1Mmb8XrGNnL5KjuvBlPUQqpKTsGowsjeC3g6eb2fBotLrpuDx2vR3kPntuH1+Pko+8G1IMhLaS+inPed2ma9mmdo95W21mmpA7+1kzF8Bqm8rTW8o9lvH6Og0jYToxX7Z1h10E05uhiJhaW1h3/SBFvufPifBqjRME0zZq4irgd8V6KakkSH8/aRMLiKvnnsbhJ6VY1jOWofHosfh8WN6sU16PeP82rl9pVadxBNvEI252dmjRuMz87zFAYc/CkzVjYwePeFsaDfZDUCrcneoQxglVCCxOihQnRwoRoYUJEwtIvlHsZ8Qgb7cv3VqJE9X4XPsaUNOhD8S1oK/m7Gz8Q4bupgxQGCDjRfpw4T1uOBQE/nhMn/mxIZfBt77QsznN9fJ8uvh2eJmpPmLQpSJI6l87jeEDdxj03Ru/zne2ROHns4aOmZX770IpdXjwFFLIZ5KwsCTPR8R1Vf97KwOY+4DvR1KjFuQXMF8q0H6qeyZgWfS4/VsraWVi2BdOyUExitmWrW+Bx4v0k2TZsSibfAe4YsDM25o7kkM3ZJMyA2wmUOPgGIscG2gX0mxmffnj9+Xsf/+cSX+9ujOx4/dT6qpUNNh5+0Vr+/AsBjiwt4lCpgvn8XNxz1JuMTyOoxzcWnTbmimUU8iU4rkMxB/2+R2dQlYKe5XsMPGJ6gYd230E3cHEoO48CdU7d66AXevBpBO9UKN8s5MdsfOOweNiGYUVw2i6qHzbQuu7CrdE56S3qqwUHgTnNe/rrq3Y+3Lj/OW/52HMdLC5VsLhQwaHyIh4oHsOcXVRTj65tMPXspPfVQ5BkCsWMbiye8iGa/Q42nW1UvQYembsflUwZH3SuoU5xlqnu4twMDyKXO5OmUpbKoTZ0u1TOteu4fqmNxiUSvV0kYUvoXslN9yEIPzWK7HDj0BPecmmthdJcCcVSCQuleZwoHcdCpqTWKwWVqkYGt5j+pPlxYGE8wlp+F1W3gZrbwom546qDPupW0eh34YXxP5O4pQaul4NcBq9dJMzpOai36ti+2kHzSgijnYPRmIOzaTuRH5GwjSkJO/fUqmEZG9lsZtkHNTBpjHoOSS9V0MilCWDhyYY7gJZ0Wnj5WWM88jiWnLI3qv/oxVtew7h/6S/dJq2tnh84tLQ8//rbUxK2/pWnz0aW+VbBLhX4QUf8zRSntOGzhAXxizuIRzLXxt0UxyVwGfRJ+rpT/+bDoA6wTfT8Ho1A/5kLf57Sg9wnn3z2JPXGz2hwf4GyzTh6MKBOL1Gnb5mh8d0/Xvz9W0l4B4D/A4EARQUv/LPpAAAAAElFTkSuQmCC;opacity=40;" vertex="1" parent="1">
          <mxGeometry x="307.27" y="-820" width="36.94" height="70" as="geometry" />
        </mxCell>
        <mxCell id="pyCcSY5dYi0iwdxOa_U7-5" value="" style="shape=image;imageAspect=0;aspect=fixed;verticalLabelPosition=bottom;verticalAlign=top;image=data:image/png,iVBORw0KGgoAAAANSUhEUgAAAEwAAADYCAYAAABBYAV+AAAAAXNSR0IArs4c6QAAAARnQU1BAACxjwv8YQUAAAAJcEhZcwAAFxEAABcRAcom8z8AAAwTSURBVHhe7ZrbjxtXGcC/uY/H9q6zCZs2vW0SWi6iVVpKK5DaQtqU5iFCpUWV+oTECw9I/QeQQsVfwTOPfaAVyUNbKvEAL7SAChUVFEEEJNkkuxsnXl/mevi+M55d27G9/mzvptl8v823Z86Z8bn85pwzjr0wBqOb3g1MPNaxF7725DMPJIb7ssqsIAMrghggyyjw1xZmN9kuM4uyQUyrezBf8tZSDKyfmqDDIo/Q+QwPdWpiOfY/NRJPqeS6bdtvvf3hB+v6wgkYK+z7Tz7/gmHA+57vQ6wyUJnSwpRSOggtB2vJc4TCLBbof3n1+lo8NI18aPhqnc4L3UrRHv7DriJ5m1RGP4qODRwDladK96UZtm4YWfrsr//8u7/QKyYBqxnNK9946Xkw1XveF1IzKTexhJrDBvvGm3eyqKg4leeHl+4KPX0gqMVbWjOxNMXSlgNGuwTNG+mGmapvv/OnD/7avWJHxo7g1SfOnFROes472iily9d1gzjj+ujrWE+mUEQH+jWYbpXtAd0m+yFhsQWq7oGxsQita/Yqbi+nzn/0/ifdK3ZkYPj9vPzYmZOml5yrPLFZso5fB8s2wMKpTFM8yhKgCa47hkuO9jUK27LAMA1I8ZiWMMX4VnaGBl5UsaN07Esa5TfWxP7S62gbyRJ8JQmLLMjWSgCXl6B10VnFXs5P2JlHTp20q9a5h3/glO77jglLQRWWvCq2a8C/m6vQSjoo0IA4TmCzuanj4IElKJUC2NxsQKvVhCiMdCtjGxoDCZpEmD6Pv5Iwg40Lob5pi/e6Wlq4mULjcgwZbm5G0iPsfy5b2NjH1vHF40ct33j9oWcqzrFv1eChew7DscNH4PBBbCyIwF6wYOFAGfwK7glOCqkZwT33L8Oh5RoYNt5WOwHDTcErW+AGs4U3pGwwqB3LMqFxJdaiFu/1wK3gEsQHY2sj0bPdwMelwj0MGgHEDWsTb8AvP7v0r6vdIe9I/tjagTTNII5SCMMYwiiCDkaMx0mY5oHnkhiXJEaKx3QtRUpluBT2NPAJqMEkoy0B85RqBjfgKZhIGDWev40YfEpuHfQdzhNutX3XY0bn6VcRMzKZsAG2292+Y7Pfu+HMWq9+/RxmVgFLGD0Tc1n0O38C5W8L8Qg7ZeiOFaXdc93yaQN/3VI2UfT+bHVr9ik21QzbhnoxhDlM/YIRLYxk6/rBF3IrGsGMwkYwp859HtkdYfuYu1wYfyncncJoj93aZ91uOhmyJJmIMCYijIkIY7KjML0/7uP3VVyYM2yOb+H3gl240RMJo/+PmaYFFoaNYeJ/zujT1SRLeyKBKI0hxrQ3HyYUEURTRJzmdVFbMdZF9VG9xae7wyJN6aOmPNIEg8pTjBhv9/YXW1MzkbAMOxHHNIh88IlKwbUcKNke+BiUlt0SLPgVKDs+lCwXAsxX/DKWlaHKjopOy34JfNcDx3Gg7AVQwfBdHxzX0WV9UZR5LpQq2K+yBy4eO44Ntovh4023Zp9yY2s4/cjpk14Vzh17LS3d90IKS4sHYKlag5q/AGXbB9uwcJEqfVcjFBpHkf542rYdiKJQS05xlnDXBs3gFKdDM2nDRtjAtAMPVpbBMWy42rmh84miegfAZlSioF1P9ScWbsXE3mWw2WjBtUsbUL/YgfYVvG49ALh8MP9M37BPnf/o/Hw+ov7K4YePmi68HqyEjnmojVPewCWBCzSz4JBZgwoEYCUWOKkLvvIgsHAGKB/czAEX8yWjBGUTZ4qFM8+idNKo6NeCsnFG03IEeDA4AhUsb9FSo6WlcHsABwfQE8rBm4gzy/GAvkt1caYbeF2GSzPEG9hBkeEGWm3ju/vNEiSb9BF1wvqIeuytP/PY6ZO42s4f+mbHr3ytA0GlDEG5DAeCRThaPoyCfL08810up3gs8OZUPzQ7aIY1YpwZnTps4kz7YvU+cEwbLrXWMN/Re+V2qwNgMZ2hD4lTvK7daUK9fh2u/7cDzct4oumDcX0B2mvGapbN8VujV5566UXLsd8NlnAi+rHe+PVbjBTvfewa9KUCbsm4EeL+0P36rRf65oaWV/5NeV5mYtkOzebQYPFmxLj0Ety4aZ+kukLc+Kk8/8gcW+xWR/tT8c08/UUCSdfgdTgn8RURLg8sS3DbTk0wMxduNlphquDp83947+P84p0Z2/NXnz39aJaon2ahuZh2oAWZSpWpHvUWjC9VjgEsVksQqBJ0VISBexYOrjsM/fp8H4vBxs2YnrBEGIb6ro+cHUheRz5ofRswpRlHjuhrvS0ZCD350lBB2EzB8U1wyyaEDVQUUS0IXmpEDsANH681PjYd8x/4jHdSMytnZnYxs7Kz537/m//kF+/M6F7nGGfhrL7mTXhTP5Rfefq7Pzv0Zf/s42+U4PGv3g8ryf1wKV2Dy8k61JMGOs3/boFmw7VrV+HmzRtQWViEAB8GpOLK1VVotdsokPkWcBjYs6SjoLmewNpnHVg84sDB4z5c/bQNzTV8KJBhB+NKFaIPlyG5afz4V5+8+wt6KY4LO4CjwjcBuq4JGddrEqVIVCGLwD0/ojMm3jTbM8DBO2oHJlgeluFeSoF7rU4NN++wSYHHugyP6TvLmcPpObZoHeJe2i3H3R/zOCOxXFFKf4SC8nCGdbrD0BOgR9ZOE2eLccK6c7ofbNah7/5ivLMhPn3aCt+bdfBNagufZi185mBQqvNtWi64dWA34zaWY+DShqyDSwzLZwqqo6gHtyeF+5OK83yGaUZ53K8o1cf5aPC2DmXoWIcx+7rQTfXcIDrsZvtv28A186Cvne1Ke6un4978rMxhI7m7EGFMRBgTEcZEhDERYUxEGBMRxkSEMRFhTEQYExHGRIQxEWFMRBgTEcZEhDERYUxEGBMRxkSEMRFhTEQYExHGRIQxEWFMRBgTEcZEhDERYUxEGBMRxkSEMRFhTEQYExHGRIQxEWFMRBgTEcZEhDERYUxEGBMRxkSEMRFhTEQYExHGRIQxEWFMRBgTEcZEhDERYUxEGBMRxkSEMRFhTEQYExHGRIQxEWFMRBgTEcZEhDERYUxEGBMRxkSEMRFhTEQYExHGRIQxEWFMRBgTEcZEhDERYUxEGBMRxkSEMRFhTEQYExHGRIQxEWFMRBgTEcZEhDERYUxEGBMRxkSEMRFhTEQYExHGRIQxEWFMRBgTEcZEhDERYUxEGBMRxkSEMRFhTEQYExHGRIQxEWFMRBgTEcZEhDERYUxEGBMRxkSEMRFhTEQYExHGRIQxEWFMRBgTEcZEhDGZWpjRTW9BdWOfMrUw1SumOO4V1XtcMKzsDmOmJVmMf9DVfmbue9h+lzdXYb2i9kwcbaYjN9T5M/cZ1scwa0XZrEGMyu8iuytsNxknZhdn3e4K2+PlshfMR1ivlD1YFreT6YUNk9Ira4i4YS+507hz97DbxPyF7bM9axCZYUxEGBMRxmTvhA15at6JTC2MPfZ98jCYbYYV1nrtDZocds0dzPyWJAnplTOY3y1629kDphc2qpPDynvLigHOGkSRDjKqfA5ML2zSPWmnwU3LbZBFzG9JjoLEFrEP2H1h+wwRxkSEMRFhTEQYExHGRIQxEWFMRBgTEcZEhDERYUxEGBMRxkSEMRFhTEQYExHGRIQxEWFMRBgTEcZEhDERYUxEGBMRxkSEMZle2C7/0cfnlemFdf+4xMC07+9MigylfSfmzC1153dQFw+em2M/ZluSRUcoHYxRDLt2miD68nmhKs4VDOZnhC9MQeC5LpSqLlSdEiwaAVQrPlQWPCgvulBeyKOCx0HVgVLF1mmwQOGCj3m/bOXpDEH1lsp4jOFRlCzwAirHlI59G1xMddCx7UCmlN8dxdSw/X/vqVM/qq04b5z4STn8+pMPJCvWEVhtrsOl9jrciBugMgWGaeqlura2Bo3NBlSrVRxEAJABXLu2Cp12S18zK1RFFCpobaSw/s8QFo84sHTUhat/j6C1FueL1EkhvVT24j8uK9Wwfv7Op++9rV88JWxhzz33nL+yUvNP/BDgxIkVWIEaXIA61OsY+LNNDeoX9Bmo1Wo6T9TrWNZ72TzA+i5coHawlRVql9rpaaSOJ35bAzdebr31t7eibumeMOcd4bawH8ZwpwDwf1CUNKSGzc2tAAAAAElFTkSuQmCC;opacity=40;" vertex="1" parent="1">
          <mxGeometry x="305.87" y="-679" width="42.23" height="120" as="geometry" />
        </mxCell>
        <mxCell id="pyCcSY5dYi0iwdxOa_U7-7" value="" style="endArrow=none;html=1;fillColor=#dae8fc;strokeColor=#6c8ebf;strokeWidth=1;exitX=0;exitY=0.813;exitDx=0;exitDy=0;exitPerimeter=0;" edge="1" parent="1">
          <mxGeometry width="50" height="50" relative="1" as="geometry">
            <mxPoint x="270" y="-559.8400000000001" as="sourcePoint" />
            <mxPoint x="450" y="-560" as="targetPoint" />
          </mxGeometry>
        </mxCell>
        <mxCell id="pyCcSY5dYi0iwdxOa_U7-8" value="" style="shape=image;imageAspect=0;aspect=fixed;verticalLabelPosition=bottom;verticalAlign=top;image=data:image/png,iVBORw0KGgoAAAANSUhEUgAAAEwAAACQCAYAAACia41/AAAAAXNSR0IArs4c6QAAAARnQU1BAACxjwv8YQUAAAAJcEhZcwAAFxEAABcRAcom8z8AAArPSURBVHhe7Z3JjxxXHce/tfTeM9Mz3sYkColDHGcytkfEMkJckKIkSiYKRJCIE+LABQ6IC8qJf4Bbrkg5cOGAhFgSCcMIpJhDIBJRhASCBGETO4vHPT29V1d1Lfx+r6o6bXvG079e7Mz4fdqvq96vqt979XlLj6usMTR3DiPZ7mfE1zDRRb+08lK2+IhXXPshsLb2IPhVp9fl+mV6Z/i9Eu/V6QjFKxXOD8fonDg7EVwEF8VVXr5cp3ootlZB/d24ngF1OvAuxS+j9+b/3uwl0ZGZSNjXzj/99bnj1o/PfL9gnP/q59yT9oPYdBr40Kmi7rXgRwEsw4BhWKhtb6FWr6FUmqNUhGlaqFY/QavVpnPMpMQxoavgC/E9wNn2cf19B4VFG8srBVT/66H5UR+IQkRWhLCWt/tvH8uF9dyrv/nHhdfiAkZnImEvfOmpHyw/VH713I9KOPfF4ziFE9ikLr4SbKLmNZUwk2SYpomtrSq2alsol1lYCZZl4drmJ2i3mur4hE2hTiFhboRuzcfmvxwUl2wcP1PE9fd6aFwlk0Rkh8BWEcFf7kP74/Anv/7nhVfUAQETda0Jo+d6HrpN6kWvh+2wi0bXQXO7h/a2S8lLti46jT6cpo8ubTt1Th4cFQuS5E+eWj567QCeE8DtxmW6nO+GKu9RcumY16cRB3TVRQiZcC58SpRsDzpTEzbZhNo/TE3YvYIWJkQLE6KFCdHChGhhQrQwIVqYEC1MiBYmRAsTooUJ0cKEaGFCtDAhWpgQLUyIFiZECxOihQnRwoRoYUK0MCFamBAtTIgWJkQLE6KFCdHChGhhQrQwIVqYEC1MiBYmRAsTooUJ0cKEaGFCtDAhWpgQLUyIFiZECxOihQnRwoRoYUK0MCFamBAtTIgWJkQLE6KFCdHChGhhQrQwIVqYEC1MiBYmRAsTooUJ0cKEaGFCtDAhWpgQLUyIFiZECxOihQnRwoRoYUK0MCGzE3ZAf7GrHmFCZidsr9+1vE9/F/PUhKXXP/DAO2najdsd+4wyFWHRsJih/cEyNnx8nzOTKZn6SR3t6Wr45EnYrYwpfgHNbA1LHezpYfiE4Q+Nk3Ziyt/WMxPG/4PC7Rp7u2ucCnuJHJOZCbuhsVNu9N1kOsJ2EzIs7YAwuxF2QLl7wvbpyLu7I2wfSpuKMLVUDV+8CsS7ijSfxm4+vo+Y3aKfSkmPDefT2D5kdlNyt5/BUlnp8ZtFTiOlDO9PiTu/hu3xA+1nnTsnbJ+LSrnzI2yfo4UJ0cKEaGFCtDAhWpgQLUyIFiZECxOihQnRwoRoYUK0MCFamBAtTMiowna8k2UZpqsO8R9+1K22vKE3Qu0n8QG8n+SHwxORFjRUtrrdOogP3XpNYkZkqP9/X8qowtIa+fzBZ/wwyKeHInpxWzjH+2pLb9ENT0eI+ITB7lRIC7qhwIE5ig/tJ4QIs8kuc+sJuzDylFxZeeKBx8+svbZy+uyFldNrv3p05cwvan3ne1HI7SRZpkmjyYRJ2zgZMC2qwKLxRvtcU0Q9TaeokaeaqPTTVartZClKtqpsZnjL9ao8vVEHhkGIhuF869HTZ3+5snp249HVs9/hownpJ3fktgeHOb92/ixNr7/m8/mcH/YRUsUlI4ujhwt48NlcdOKxReM++yiaXhdbbgNt36FzQjUlTbLUarfQ7rSQzxeQy+ZVvNmqo9dz1PGJoSsJ/QheJ0Tz4z6yRQuV+7NoXeuju+3H51DnRK0sgvcXolYvNNqWB5t61Xf7F48VKq8c6dl//+nf3ujGJ+/MyMJe/PL6qhEFG5mCseyZPYrEU5B7zsyQFBpF8doVT8hbZyIFODaokXboJBWfJlwNjXouXvUDz4C0irh5FDPUhuNGQK0OMuh7qJLQb/z2rY2LfOpuDJq/Fy+fW1+lVX7DPtZd7lWqiCwfAa8EAYkLTES0DagZZjKiOEXUcl7D1CjjKUsplkRwYynOwlV+CqiLUaJICBcaRrCyvFTQbkB5bgtPW1q9eLmAT21sZSKzMW90qzYCL3jmjXc2/sDF7MbIwl48QyMsE27MrznL9uNbyOQNGs7UGFo83NBDwNOPXrRCIKA1IvAD2LYFy7IQhCyW9Kquv4OQNN+jN/pjZrgT45EfUIzXUxYWVgvAR4voflBw4FvPv/7O7/6UfHpHRha2fuqpVeqtjcdeLi6f/GYWywtLOJKvIIcM3mtdRc1rwjYs9H1PrVe12hYOLx1BpbKIRrOOVqsJx+nGFY5c663QZQ4+zvu7weewmM1/95S0pYeopQUTXjtA7RJ1cD+gzrYQbtEX/Sck7Ep+JGGjr7Yej+gImZyNUqWAymIZhysLOEpC5hdLKC0UUKZ4aSGPQjmLbMFCYS6LMsUL5RxyJZtiJjJFUx2baaIFn1Mmb8XrGNnL5KjuvBlPUQqpKTsGowsjeC3g6eb2fBotLrpuDx2vR3kPntuH1+Pko+8G1IMhLaS+inPed2ma9mmdo95W21mmpA7+1kzF8Bqm8rTW8o9lvH6Og0jYToxX7Z1h10E05uhiJhaW1h3/SBFvufPifBqjRME0zZq4irgd8V6KakkSH8/aRMLiKvnnsbhJ6VY1jOWofHosfh8WN6sU16PeP82rl9pVadxBNvEI252dmjRuMz87zFAYc/CkzVjYwePeFsaDfZDUCrcneoQxglVCCxOihQnRwoRoYUJEwtIvlHsZ8Qgb7cv3VqJE9X4XPsaUNOhD8S1oK/m7Gz8Q4bupgxQGCDjRfpw4T1uOBQE/nhMn/mxIZfBt77QsznN9fJ8uvh2eJmpPmLQpSJI6l87jeEDdxj03Ru/zne2ROHns4aOmZX770IpdXjwFFLIZ5KwsCTPR8R1Vf97KwOY+4DvR1KjFuQXMF8q0H6qeyZgWfS4/VsraWVi2BdOyUExitmWrW+Bx4v0k2TZsSibfAe4YsDM25o7kkM3ZJMyA2wmUOPgGIscG2gX0mxmffnj9+Xsf/+cSX+9ujOx4/dT6qpUNNh5+0Vr+/AsBjiwt4lCpgvn8XNxz1JuMTyOoxzcWnTbmimUU8iU4rkMxB/2+R2dQlYKe5XsMPGJ6gYd230E3cHEoO48CdU7d66AXevBpBO9UKN8s5MdsfOOweNiGYUVw2i6qHzbQuu7CrdE56S3qqwUHgTnNe/rrq3Y+3Lj/OW/52HMdLC5VsLhQwaHyIh4oHsOcXVRTj65tMPXspPfVQ5BkCsWMbiye8iGa/Q42nW1UvQYembsflUwZH3SuoU5xlqnu4twMDyKXO5OmUpbKoTZ0u1TOteu4fqmNxiUSvV0kYUvoXslN9yEIPzWK7HDj0BPecmmthdJcCcVSCQuleZwoHcdCpqTWKwWVqkYGt5j+pPlxYGE8wlp+F1W3gZrbwom546qDPupW0eh34YXxP5O4pQaul4NcBq9dJMzpOai36ti+2kHzSgijnYPRmIOzaTuRH5GwjSkJO/fUqmEZG9lsZtkHNTBpjHoOSS9V0MilCWDhyYY7gJZ0Wnj5WWM88jiWnLI3qv/oxVtew7h/6S/dJq2tnh84tLQ8//rbUxK2/pWnz0aW+VbBLhX4QUf8zRSntOGzhAXxizuIRzLXxt0UxyVwGfRJ+rpT/+bDoA6wTfT8Ho1A/5kLf57Sg9wnn3z2JPXGz2hwf4GyzTh6MKBOL1Gnb5mh8d0/Xvz9W0l4B4D/A4EARQUv/LPpAAAAAElFTkSuQmCC;opacity=60;" vertex="1" parent="1">
          <mxGeometry x="374.27" y="-820" width="36.94" height="70" as="geometry" />
        </mxCell>
        <mxCell id="pyCcSY5dYi0iwdxOa_U7-9" value="" style="shape=image;imageAspect=0;aspect=fixed;verticalLabelPosition=bottom;verticalAlign=top;image=data:image/png,iVBORw0KGgoAAAANSUhEUgAAAEwAAADYCAYAAABBYAV+AAAAAXNSR0IArs4c6QAAAARnQU1BAACxjwv8YQUAAAAJcEhZcwAAFxEAABcRAcom8z8AAAwTSURBVHhe7ZrbjxtXGcC/uY/H9q6zCZs2vW0SWi6iVVpKK5DaQtqU5iFCpUWV+oTECw9I/QeQQsVfwTOPfaAVyUNbKvEAL7SAChUVFEEEJNkkuxsnXl/mevi+M55d27G9/mzvptl8v823Z86Z8bn85pwzjr0wBqOb3g1MPNaxF7725DMPJIb7ssqsIAMrghggyyjw1xZmN9kuM4uyQUyrezBf8tZSDKyfmqDDIo/Q+QwPdWpiOfY/NRJPqeS6bdtvvf3hB+v6wgkYK+z7Tz7/gmHA+57vQ6wyUJnSwpRSOggtB2vJc4TCLBbof3n1+lo8NI18aPhqnc4L3UrRHv7DriJ5m1RGP4qODRwDladK96UZtm4YWfrsr//8u7/QKyYBqxnNK9946Xkw1XveF1IzKTexhJrDBvvGm3eyqKg4leeHl+4KPX0gqMVbWjOxNMXSlgNGuwTNG+mGmapvv/OnD/7avWJHxo7g1SfOnFROes472iily9d1gzjj+ujrWE+mUEQH+jWYbpXtAd0m+yFhsQWq7oGxsQita/Yqbi+nzn/0/ifdK3ZkYPj9vPzYmZOml5yrPLFZso5fB8s2wMKpTFM8yhKgCa47hkuO9jUK27LAMA1I8ZiWMMX4VnaGBl5UsaN07Esa5TfWxP7S62gbyRJ8JQmLLMjWSgCXl6B10VnFXs5P2JlHTp20q9a5h3/glO77jglLQRWWvCq2a8C/m6vQSjoo0IA4TmCzuanj4IElKJUC2NxsQKvVhCiMdCtjGxoDCZpEmD6Pv5Iwg40Lob5pi/e6Wlq4mULjcgwZbm5G0iPsfy5b2NjH1vHF40ct33j9oWcqzrFv1eChew7DscNH4PBBbCyIwF6wYOFAGfwK7glOCqkZwT33L8Oh5RoYNt5WOwHDTcErW+AGs4U3pGwwqB3LMqFxJdaiFu/1wK3gEsQHY2sj0bPdwMelwj0MGgHEDWsTb8AvP7v0r6vdIe9I/tjagTTNII5SCMMYwiiCDkaMx0mY5oHnkhiXJEaKx3QtRUpluBT2NPAJqMEkoy0B85RqBjfgKZhIGDWev40YfEpuHfQdzhNutX3XY0bn6VcRMzKZsAG2292+Y7Pfu+HMWq9+/RxmVgFLGD0Tc1n0O38C5W8L8Qg7ZeiOFaXdc93yaQN/3VI2UfT+bHVr9ik21QzbhnoxhDlM/YIRLYxk6/rBF3IrGsGMwkYwp859HtkdYfuYu1wYfyncncJoj93aZ91uOhmyJJmIMCYijIkIY7KjML0/7uP3VVyYM2yOb+H3gl240RMJo/+PmaYFFoaNYeJ/zujT1SRLeyKBKI0hxrQ3HyYUEURTRJzmdVFbMdZF9VG9xae7wyJN6aOmPNIEg8pTjBhv9/YXW1MzkbAMOxHHNIh88IlKwbUcKNke+BiUlt0SLPgVKDs+lCwXAsxX/DKWlaHKjopOy34JfNcDx3Gg7AVQwfBdHxzX0WV9UZR5LpQq2K+yBy4eO44Ntovh4023Zp9yY2s4/cjpk14Vzh17LS3d90IKS4sHYKlag5q/AGXbB9uwcJEqfVcjFBpHkf542rYdiKJQS05xlnDXBs3gFKdDM2nDRtjAtAMPVpbBMWy42rmh84miegfAZlSioF1P9ScWbsXE3mWw2WjBtUsbUL/YgfYVvG49ALh8MP9M37BPnf/o/Hw+ov7K4YePmi68HqyEjnmojVPewCWBCzSz4JBZgwoEYCUWOKkLvvIgsHAGKB/czAEX8yWjBGUTZ4qFM8+idNKo6NeCsnFG03IEeDA4AhUsb9FSo6WlcHsABwfQE8rBm4gzy/GAvkt1caYbeF2GSzPEG9hBkeEGWm3ju/vNEiSb9BF1wvqIeuytP/PY6ZO42s4f+mbHr3ytA0GlDEG5DAeCRThaPoyCfL08810up3gs8OZUPzQ7aIY1YpwZnTps4kz7YvU+cEwbLrXWMN/Re+V2qwNgMZ2hD4lTvK7daUK9fh2u/7cDzct4oumDcX0B2mvGapbN8VujV5566UXLsd8NlnAi+rHe+PVbjBTvfewa9KUCbsm4EeL+0P36rRf65oaWV/5NeV5mYtkOzebQYPFmxLj0Ety4aZ+kukLc+Kk8/8gcW+xWR/tT8c08/UUCSdfgdTgn8RURLg8sS3DbTk0wMxduNlphquDp83947+P84p0Z2/NXnz39aJaon2ahuZh2oAWZSpWpHvUWjC9VjgEsVksQqBJ0VISBexYOrjsM/fp8H4vBxs2YnrBEGIb6ro+cHUheRz5ofRswpRlHjuhrvS0ZCD350lBB2EzB8U1wyyaEDVQUUS0IXmpEDsANH681PjYd8x/4jHdSMytnZnYxs7Kz537/m//kF+/M6F7nGGfhrL7mTXhTP5Rfefq7Pzv0Zf/s42+U4PGv3g8ryf1wKV2Dy8k61JMGOs3/boFmw7VrV+HmzRtQWViEAB8GpOLK1VVotdsokPkWcBjYs6SjoLmewNpnHVg84sDB4z5c/bQNzTV8KJBhB+NKFaIPlyG5afz4V5+8+wt6KY4LO4CjwjcBuq4JGddrEqVIVCGLwD0/ojMm3jTbM8DBO2oHJlgeluFeSoF7rU4NN++wSYHHugyP6TvLmcPpObZoHeJe2i3H3R/zOCOxXFFKf4SC8nCGdbrD0BOgR9ZOE2eLccK6c7ofbNah7/5ivLMhPn3aCt+bdfBNagufZi185mBQqvNtWi64dWA34zaWY+DShqyDSwzLZwqqo6gHtyeF+5OK83yGaUZ53K8o1cf5aPC2DmXoWIcx+7rQTfXcIDrsZvtv28A186Cvne1Ke6un4978rMxhI7m7EGFMRBgTEcZEhDERYUxEGBMRxkSEMRFhTEQYExHGRIQxEWFMRBgTEcZEhDERYUxEGBMRxkSEMRFhTEQYExHGRIQxEWFMRBgTEcZEhDERYUxEGBMRxkSEMRFhTEQYExHGRIQxEWFMRBgTEcZEhDERYUxEGBMRxkSEMRFhTEQYExHGRIQxEWFMRBgTEcZEhDERYUxEGBMRxkSEMRFhTEQYExHGRIQxEWFMRBgTEcZEhDERYUxEGBMRxkSEMRFhTEQYExHGRIQxEWFMRBgTEcZEhDERYUxEGBMRxkSEMRFhTEQYExHGRIQxEWFMRBgTEcZEhDERYUxEGBMRxkSEMRFhTEQYExHGRIQxEWFMRBgTEcZEhDERYUxEGBMRxkSEMRFhTEQYExHGRIQxEWFMRBgTEcZEhDERYUxEGBMRxkSEMRFhTEQYExHGRIQxEWFMRBgTEcZEhDGZWpjRTW9BdWOfMrUw1SumOO4V1XtcMKzsDmOmJVmMf9DVfmbue9h+lzdXYb2i9kwcbaYjN9T5M/cZ1scwa0XZrEGMyu8iuytsNxknZhdn3e4K2+PlshfMR1ivlD1YFreT6YUNk9Ira4i4YS+507hz97DbxPyF7bM9axCZYUxEGBMRxmTvhA15at6JTC2MPfZ98jCYbYYV1nrtDZocds0dzPyWJAnplTOY3y1629kDphc2qpPDynvLigHOGkSRDjKqfA5ML2zSPWmnwU3LbZBFzG9JjoLEFrEP2H1h+wwRxkSEMRFhTEQYExHGRIQxEWFMRBgTEcZEhDERYUxEGBMRxkSEMRFhTEQYExHGRIQxEWFMRBgTEcZEhDERYUxEGBMRxkSEMZle2C7/0cfnlemFdf+4xMC07+9MigylfSfmzC1153dQFw+em2M/ZluSRUcoHYxRDLt2miD68nmhKs4VDOZnhC9MQeC5LpSqLlSdEiwaAVQrPlQWPCgvulBeyKOCx0HVgVLF1mmwQOGCj3m/bOXpDEH1lsp4jOFRlCzwAirHlI59G1xMddCx7UCmlN8dxdSw/X/vqVM/qq04b5z4STn8+pMPJCvWEVhtrsOl9jrciBugMgWGaeqlura2Bo3NBlSrVRxEAJABXLu2Cp12S18zK1RFFCpobaSw/s8QFo84sHTUhat/j6C1FueL1EkhvVT24j8uK9Wwfv7Op++9rV88JWxhzz33nL+yUvNP/BDgxIkVWIEaXIA61OsY+LNNDeoX9Bmo1Wo6T9TrWNZ72TzA+i5coHawlRVql9rpaaSOJ35bAzdebr31t7eibumeMOcd4bawH8ZwpwDwf1CUNKSGzc2tAAAAAElFTkSuQmCC;opacity=60;" vertex="1" parent="1">
          <mxGeometry x="376.87" y="-678" width="42.23" height="120" as="geometry" />
        </mxCell>
        <mxCell id="pyCcSY5dYi0iwdxOa_U7-11" value="" style="rounded=0;whiteSpace=wrap;html=1;dashed=1;strokeColor=#82b366;opacity=50;fillColor=#B9E0A5;" vertex="1" parent="1">
          <mxGeometry x="340" y="-750" width="40" height="70" as="geometry" />
        </mxCell>
        <mxCell id="pyCcSY5dYi0iwdxOa_U7-10" value="" style="shape=image;verticalLabelPosition=bottom;labelBackgroundColor=#ffffff;verticalAlign=top;aspect=fixed;imageAspect=0;image=data:image/png,iVBORw0KGgoAAAANSUhEUgAAAFcAAAA9CAYAAADYp/VQAAAAAXNSR0IArs4c6QAAAARnQU1BAACxjwv8YQUAAAAJcEhZcwAADsMAAA7DAcdvqGQAABlySURBVHhe7VwJkF1Vmf7v+vbe96Qhu1mBLGQFQSBEQQaNNDiOjgJOHB0sHJfScqaGSamjZY0OU+OUFUdLrXGsGShFGZEibsQMAqEiBBIwSZOts3R6f+vd753vP/e+Tqf37rxkqqb8w9fnvXvPPfec7/znX869D4n+j+S+W7df70m0JxlPJmzXiY5eTgkocFzKLFpI+oKrKVDlu7/5qY89GZ28LCJH5RUX1zQDzzAcp5Ant1C4InC4LBZxb4sCz/ejrlw2qSS5M1oFZk930S1ZtlUyaDZwTJM8x74ItsnnSmSOh2KJLMA2cJ3rOeQppagr40lFVnSlzYK0Y8cudbD17KTtPr5zp7395rs2Srb9M01R6x3Pjc5MX4KAgT8jRJIkgXFHxfVhfjILF5G+eKEj67GOXX/78E87HnlEj2rQ8hUr6HUi7/F77/WiQ5ckFSX3Lx/5p3mu7H2FPK89wIKPDo8RL1CcNBn1rVJujSZLuudfTNKkgh4rikxnjvfSicPnBJlMsoxji65ZSM3tzTgWVWRGRwgfcdQYDUp6kCs5r2DhnFUkWfNcl2K1NWr16mv0WFX1ri9sWfuD8IpLk4qS+6FPfP66wA9eyCTTMTOfw5Hxm7cdn5ob4nTj9Y2USmmYB3/a/ZBliTRdpZeefYP2/vwASfgO+0kqjm197220csMKcUxo8EjNxldFUai3ZyjoPHpWOtk1SLm8KSbKty1Kts2h1jvfTgXH+eqXt6z+bHTVJUlFye24o2NV4Em7Nc9rMeGoIhUaI6WCSUtWtdOHP38X1TdXwyZa0ZmpRZZl0uMa7X7sRfrxt/eQpEjkux7pCZ0+8Jk/oy13bBYTIEgfZTY0VaNTnV304i9eon2/fInOnThHWkwn3zAotWABzbv/AyQ31P39Fzet3hldcklS2WjBhrLAfgaeFwLLbSIQnLWqyqRqCsoZgOsDbAYEdcP8SUIzy+dVRUX9i6GRSgraEEoNbedJ4b6IkvsbtVQpqSi5vus75EuwDPg8DGjWuIDtRaDrAx6swkTgusODjhYCFz4mh20lPH8El1z+DpI8EOf5XI4Af+d/+Ox7AdoF0AnRRy65XawKSdMq4sxYKqu5GBPPv+jsMKAh44EZk3B7YTomBttONgU8cC55ybPWsvisfeX2QNi0VI+rCWLL14Wl0Ai+l6ZNFP9yh2YkM76gLB0dHYrixh9AC+vQrZJtu2ZjQ2bOwgX129MJNeU6E2ddCEmpvjGgtRt8SiaRUIxTlXlnk3n2jEY951UqFeF4MOxwLpgcHdoYEyPwkHkpmkprb15N85ZdLSZEjGwU2Ww2hvqG6NSRLoHcYE6YCQXnSoFMXY5O/efOv1A8fPS37CNrlr8lkbr2uqKaiv3b17ffeSRsZfoya3J3rN2hDbbmdmdSmZtteFvTcKitvYbeec911NxWE4gRjnIowyLFwfApkgpPgJksvg+HmsMCk8nLgPbvS9DBV+PU16ti2UOTsTws06Zb3nML3XX/O0FygMlxBenxZBwOSotaGEdQB6aLXNvBBLMJ8cV1iWSCTsLR/fBffhR0nx2QVF2nAHXq1qym+IqlSJW1O77WccfTUSvTlkswC/vJ7R80jPM9ZPT2UQmlPZSlWFylVFVcSmXiXJIoR6M6QfEU2AssLMsSlqQ5BnDhgEm2ZUJrTSrmLSrmTCowsjgHptJVaUrXpIA02kyLcGxSwVyzSdHiOiUzyeHr0sk0JVM84bZkDw2R0dNLpd5eMgcGyCkZjm9Zs7LDU5E7oWZ/a/9+xygatpFHagkYuSJSSws2ET5ZSwBxLNXxwecVlbUV6zzgfrOZuxhBEAGOiO2icFqiDD9zz7TyP5gERtkWTyYconFIFkc/UuhHEkjhXywRI9dyorEUyMgWyMJ4oNueXlM3UUI0IT8sbG4mFbatmzo+XLv2urVV1y6/Lrl69YbU+rsfpMWtTY0x3703nU4sUBF3qrpGja1VtGJtG6UzsAisgR4651v4PBogzDpPbuEgCLSxNFnjuJ8XAPOIayU63aXT+XMaGSUVddnB4ThIXnLdElqxabmIAlwscT7GIuztJBLA8dm2TYZpUAkwsTJs1abeM310+OWjUF4HqyoBUxGjdPsc0hrrPTs3+It9P/vJkfvv/3j9uo73ZW565z2xbRtXW3v27JnA7oUyeU8gnNJ6krvLyWYXO/39OagmuX7g66qkrF1eP7+1MZWBMyPXUyidMmn+vPNYYvBY3PREtwaZgZsjtwQfAbKRCUQnLoiqwpbCxj7/XIJe2R+n3vMavvMZn2zY3Nu230Z3f/BdmADY0MjmphuTlMiETm48YYc22DtIx984SSf+cJKG+rO4jyLa0JFM1DXVIvvTxOUKkpOeIZMOn+oLBnsGj5dyhSFFlZXk/AXVsabGF1Qz+Oijf33/UNjy+DKl5q5at7HNd6ydyUBuBrktkuO2+IbdqgdB8/WbF8RWrLkqqGuqlprbm6iuAaR4B+AMTpHv9AN9UTkavSB3EDxhEgQRY9nAHEaaq1H3OY4WmAQ+g0gBnq59/lV01fx5ZJWwlAsWOaZLcRCrJ0HOeOTimIpJHUS0cPTVTnrt+YPU+eqb0NheOonIgePfDVvXi/2J1nktNHfRXN5BC868fkwq9uVq/ZLVKnt+S0371TUOBXFJKX1v39NPT7azNrVDcwaHPHcoN5Tv6qL8yVMCueMnKH+qi9gx17VUSzUNaaprrKKq2jjJkgHi8iOQGx9eEa2zao/HxBQC9jiudeBnXMsFsVyGtnkqYXttFAzK9mVpoLufoJXUf7aPCkMFONuk0N66pjqqr6mDeUtKEpuQ7u5wzBh74cwZ8grFrF+Qp7zZSHLHHaVn0JDryb7ryuxMBXA/UQYBnIisw0mEQHqDK6JmJgrDKiqXco/o2nIT5XKYhfI4QpRPX/gwtYwkV1z2F19+9PodO7/a8eG/+crdD/7d127NXJXZXpMqJutrC9R2lYtY1qW5V/nUNtclXeklu3iKXLOLXOMUeVY3WmHDiI6JtTkVLk046hXlTJtCfQlZitg9Y6CB8kYPZ2qi5KiFFUR0NarDNxIIm5lKRpsFKShZn4Ntesw3ik+4heJuyXe+0VbX1/iWBd10/UaD1gHrt5i0Zn2RUvrrZPT/jpzsPrKzv4P3fw1Ls2yGptmD/8cyxuYax95M2CdOkXWiSzKOHJf9M11yQ6KfFswrBstWOLRshU0rVjq0dJlFCbWLrOwb5BYPg9g3YEKOhd7/j8QKGUOu2d1nFk92UREOK3/iJL6fpbhapNoaR2po9KihAWgMqB6lJiOcsvooQAQQIDIIHKSywiz8UVjGkEuI7yRkOwxZRYk4MAgQ23qSiDtDkCgDRHIiARgGR3Z/1NqyjCV3hLCHY/utagHFYkD88iAeQcN9Rgtv3tiITCxTItOUUcpkGmGkwimrQDwE7y0oarglGSJyQpHwJ+Q/IqMzS6YIyZDCi5K/8yZQJWV0EiEtX7j8PlWSl7lIC5FZotNEjU2IDBBpcfhVyMtUKCgAl5VDHu3yamCCQ6fMBBL19ylUxP1k9DSV8ild5VMq7VDr3CbK1DRSIVegfDaPJKMokgjelPEcT8B3I7LQFrcpY2UV8yWx7VjMlaA0KtU21lCqKkVzF86ha7dcg1g9I+6toG73mfPU+dqbNNQ7FO6bIMNLzplDUjp5Dud/8NKvfs47SBPKhWkNRXrP7e/5UUxW321kh0SgzoOtrfOQa/tCg2cS501XmETHkeAsLbp+k0HIRKMMjSibDYkP42p0UIYxUnw6cbyVjhxuBxGcsTmCqM23b6HFK5eIsIp34xVdoaqmFEjX8RmaDNL4eV0WWXxuICe2LnnznTeDEuk4zZnfRrFkTJCrI24/sO9Vevo/dtPxQ8cpP4BUGalxw/r1JDXX79dkfdu/fv6h/mgI48qk5IrR4UYyBsQzz5vUl0N4Q8a2JFq/qURb31GgRELcVpDJXeBS3Bl/mHRND2jvbzL0zFPVguzAd6AEGm1999tp1dprwpgV5GpxleraqyhZEyc1Hi5SEccC4ukD2uNhcdt8v/D5WmhKKkHuaJsbjkGMhoPp8DO/s8Ga5disQZWD65SBtlF6MAujVwaTCb9KUEwQGAJjhHiwxQ5SYKS/XDrhzthwIsCTAjB9ZcIY/KiItVyH+YgldPHUWJT4Lh4nlesy7SjHSHTIl2aW/gpxLMfhnN02XWiTA3CJAeBzpWBbttjJYin3n5d3ueOjJZrrYbDwg00xSZgYW0wWk6JCq/UIGukxAKQJAiU4PQY0UpeAcf7xOQGcR03RBhM+sl8SjD9Sfq/pcx/NR4fGCCZYXCG9/8GPPyQFUuD4gQENiTXH/I+kYuq1jgFbzSOZYMCXIvwiRjFvUteb50G2iw7Lwixs2FyibXfmYd9xW9y3TORI4ePsBw68HKd9z8dxLXfRhbNRae6CTVTXtAh1QrOgwuZmYHNjaY0UbcoNwGHhe6hYIsdgDvY/+3vqPtlN/FCAzUZm8WKi2uqTvml8I3CdXtjxhO84lFm5Sm9Yv6boZ/Sf/8O6dedEO/c/+DCI9jH7LqkY9KYNc2jxwjrxDIw7eTmElyET++T398KxFMVzr+mSy8LKlB2SaGAg1CoVDs7zZDp0sJ3OnK6FZWFyUQ+hmBJTQEq4jyBkgjYvElRljS3miiJS4DCNow9uQ07EAzWTkfSaKqHFAWw3k9u0aSPFly915Zi+9Us3Xv+saOZPt3WA3EB4Tj2m0l3v20CrNy0M4EUFubBe4n6VFH5edfTgafruV5+igZ6cIHsm5LJw/MtgYU1m8/DMUzX02oEkrosiC7QhFIR55ZJlmuRy7fLjJY6Nh6+D/UJyJSkcm4qoBOTCzLVsvZUym9c7aiq19Qub1+zhqjI/VLSzgChzpOKCZDopJdJJhCdAihEXjz1mB1zLj01EOxEySRCKJX0Jk6dhbOl0MIxUivexHCqZFpUQkzKKQAFJQgFJQgFxrQCW95RAvTxQRNhmg1xEasSvRTBc35dsyyIjlyNjMEuloRyQFa+nBpJsyVU1w7Ev4mqEH1BvLglmwec3U1xnFKKHg7MCt8dvxoxoD8uIY1NWB+GVZyGc4HDmVgZrLnSKNIyhDJ0BOykAmztj8OtWUDYkfbwrIKBCIVSYDBV88SMiLYKwOtBiNzuEtCsU6Z7N7wjNAhyLhkB7+4cW0bob+DVM9r6YMnhYWW8mWa0Sn6e3riKBtwncLPl2DwW8FcmbOmg3kVKp89AQfefrh2igF0kD4tGZODS2ud3dCp3pUsPvKvQf0UP/gTgVuqDSs1sMsxN0UoLymEuW0eCyla5ZNH7nF4tnJE3VR5DrgVyJ7n5vjNZsQAiCTrMXJqWKtMy1JMeQ9imZcotROZlwAyrs0SlyCq9RYPfB+Js4JlMyKVHnYY++/02DBvp8kBsmETOJFl75fQzRQoKbQx8DkmFnlxcVarWwCsOqV0T4Xips8h/i1cH+dLOEXFo4Q6Gcw+TaYar7J9vztHqdKU7ya4uSWk967VtJSS6GhtThGI94euRKskZu8Q+w53tB8tlQe5GzJxIBHevU6N+/UwWPr4hNoemSy1qrI0N79pcpeurJtPju8zHUv6cmoHWc3aEe40oI3yeGP3tLEj2Zk6nEzhSazPsQPO8XSRB40DAHJWwiSuIyTHVmKeyyoja5PdGmjc9hEjFbgTkXdlY80xMZHiYTx5hkGAZRalcA4n6Awuk0fElg2zCDIWR+QYNjNX5flQ0yb24w6/yMP9y2C0sFKnJhK286CFNN/hxeW27zQtvDr5Py66Jcsh7gv5FgDWbtvACYAAGcY9WAH+b9BTYNXL+8rljrrwii+4mOjoIcIBJgNS6DnRi/kKGgs5zTwxGiBEHa7F5U5gCeX6oTbUbgz0wOEyo24UEuA0kVBWzscQ6OX3zm/XcZfSlfF7aFwYBQB/V5V5HXQHl3kU+xd79iiO4HLYWCjuQSScfDX/hnZIoIIdBDGd1s1/ZTnXQiwKDYeGBwaVKTSxAxNOEzjGE4T9MTNCJeWzI6sWQGQ7PAMwrCHGTmhWOITS20By3nzaF58x1attISNpU5ZrLP5nTqKWhUctAWJoO1lrXUfDNG5mFEPahX3q2rQbsJnhQ+xN2fSV9nKXxrBau/q64l6GydL0npDMe3ofJ+9r9/3Y/znqxplgfjlf3lk3Xm0UMJYSbY1nJFmfc4eY54JDMR1McE8ftgAYdhvI4gpqfQ1VUmbX9LD1XHXQTq4Sv4vOPFzo07poBEfrP8hVNpOnAuRb3FmNBuHg2miLYgbLwdxg49FL1i7d2dIzqIgERkaNHxyy4YE9vZ1Ib1lLz1lkCNxftwyAwQdMtaPHEDxZWb0ksW3oBkYmv2VO9zrl9NpQI/AVABGRmLS4Vs+OrmzMDZjo2sJxBPE4oIlRj5nEK2iZAM0UkVyExBU9NAnG0pWJLAnsxKDriIIswS8ny+VvRJQXtQUTiyDIoMNLUKZZrNDOgsYAIKYPxKIQ/kkLr5KazwdNxQUqlPJtKp9aoWv23M5L77hjv/K6bH7y0N8btcuBJqJMH5cCkA4b+sGWU7ObmGlM9eqFV0ZFraaNBfbT5LDUmHTGguS9lJsKisudDA3xzL0ItdVXQuF4d95n5ALdCtd9UG9IEG5PWoz1cjkqTvDUj0P8Wwb9xO1N2KCjfJ9wvzANwHHeCfWrW9/Xaqe9vb8npT9Vt3rl75CtcNR3VBJL2qWldTCdLSSSQPKVEqvK8JxyR+j8BOJioT0LZM3Kd0HJo3Ifg8wxtGJubhWt51QcdAQhlMiuhxBP6uwb4mNVyHa9IxV5RVaENSfMqjCdacMjg9ZQ0WiLS50kgCHHqhCImOPgvzIPmSW7KRyobC5y8IjNXHHv327tqGxttKQ0MgFMs3l6P+l18hs7s7CAxT1HfhynUMet3cLM2tNslhjZqB8G/6amFrV7UYlNDgTNmWjhLuNBN+JqdSdx4OzUa2h+9CG6HVdjZJ1mAaX3hQ4UDYmfHAL4dwszzZPTBbp204Wo6t8V0Gqb5lUcu2rVR7680FmIU7v7RlzW/L11wQkPupHz/zSURjb0MyUVQSumWd62kYeGn/TfaZs0mrrw+DQ9COlCiu+tSxqgcEFchwoSZC7aYnXJWXPdtZJnGySy0MxuafUzGDglxkkpjYfSdqaE9nPa7H4HCCA/pbkJ0vLwcQwAy6NKVghMJ5dlpEr8Fpvs6P+nFAxV2mR+448qGPfGax57m/omyuPX/ypCDXgrfnpfrBtedp7dw8tIpvfWWEyYwh3n3mSC396GBDqOE4xhp7H+zwBk6dUe9ykfsGyN2PLP6AIZExBblTrme7d8BGUIxs+OLUjnffNcmDBvNgfTHg0WDtZvPBtpBJ4CU9EtMRrjb6Oj7GmmzBETLYIVowTbx5E8OIONcfLisFtBcHNISnMv9KdCQXACcOo2cTl00uOz71yFJXkvaopt1U6OoSo3MChWKKR3fNOUJL072BGXCOMrYpvpcOx5MA0WwGmJhLFZ4kDW3uPV5NzxytEdqBmFJkSTfFFVqG+BdfKy7iPsCbgRq8QQmpE8mVhaMKyGZym2+6kRJrrnOV+IjHPPxnMnlo1w+XyuT/Rlf1llJvD44g/FIQPXgWzTnxK6oa7CRP4X3ei4U7wklAS8amhfUmHBhrceikLkW4w5xgnBjU6Wh/eF/+zomDOZghtxi/LORKHA2gzNU1UrZlLpVa28nXdJI45QWqlywmub7WBrm3lx/zTEnuJ777RE2g+dt8w6zziqbNxkeOp60gP5i0fv2zh1SjsKqc148UPuTAES1uKNHGq7LUlvFE0sCPSi5VeAWU4K2LNrQU33lVcMSxt7OODp9HBIF7MNlTDm4GwhtcvCGSXL6CvKaWE0F93aNyPNbre26Ct+gSzY1arK21pCVSu3euX9nN10x+f9HDifXgjtW3PZFIJN5lu/zrnYuFg3gbdnBlS55uWdhP82pdZGK+0OZKCJsHdm4sbNctTOR/vtpIz5/KiG7zmYqTK8nUvGkjyU0N+4Zead38+OPj/x9FAnQAwntPk8gkxHZgNWq6pKmyLzRnIiho4oKtrdxw2bywtpbBk8a9Hb1bVTFE7cnIWqXAU6qWn64WHRlHmFguJyd3Ejm2di1ctEWeaZJvWmOBcz7OEbRaR1TBDpCjh8uBMFrh3zo64X35DU1x/wqi3B5HTQ4iodjU6cqUFSaSHTt2aIMnB38a12PvsPln6KOEzYKDZGNRzRBtbD5HbWmLkiBAJAMVFg2rh+/19Ik2erWvTizf2T9XHl/YabHNbVi7hoLampc9qXj7tz796b7o9Lgye3J37dKSWvXumsaWmw3+X66METStahR0Habg0HMkDZ4PVNuEIap8wsEaGyCCMVbcGEgLr5X0ZEoQIWa4UsJtwb5l5rRRdnDwiGrZN3z53jt6o7PjyqzJ7XjsMWVRbfsDcB3rkKOM+SWhJCuBkkhZ/S8+t6706sHbrNOnyeX/qdBlIJcTHEnXqO3e+yixfPkZhE0/8UkpypLHj9MqKpIkJyVVOWxZQ7v+cds2/qXihFL5NTpK3v/Aw38uS/L3za7TZA0MkHj5pMLCQbys67RoxwOkL1m4R7th3S07xUsXl12YvwmXx6wd2nTFhzEUqSI7PsMIy0rDMAIuNT3GT4Cr6dAhdu5XQiaxO0T/C6ZYoNxsApEvAAAAAElFTkSuQmCC;" vertex="1" parent="1">
          <mxGeometry x="341.47" y="-726.14" width="38.53" height="27.01" as="geometry" />
        </mxCell>
        <mxCell id="pyCcSY5dYi0iwdxOa_U7-16" value="" style="endArrow=none;dashed=1;html=1;dashPattern=1 3;strokeWidth=1;opacity=90;fillColor=#dae8fc;strokeColor=#6c8ebf;" edge="1" parent="1">
          <mxGeometry width="50" height="50" relative="1" as="geometry">
            <mxPoint x="270" y="-678.13" as="sourcePoint" />
            <mxPoint x="450" y="-678" as="targetPoint" />
          </mxGeometry>
        </mxCell>
        <mxCell id="pyCcSY5dYi0iwdxOa_U7-17" value="" style="endArrow=none;dashed=1;html=1;dashPattern=1 3;strokeWidth=1;opacity=90;fillColor=#dae8fc;strokeColor=#6c8ebf;" edge="1" parent="1">
          <mxGeometry width="50" height="50" relative="1" as="geometry">
            <mxPoint x="270.73" y="-750.14" as="sourcePoint" />
            <mxPoint x="450.73" y="-750.01" as="targetPoint" />
          </mxGeometry>
        </mxCell>
        <mxCell id="pyCcSY5dYi0iwdxOa_U7-18" value="" style="endArrow=none;dashed=1;html=1;dashPattern=1 3;strokeWidth=1;opacity=90;fillColor=#dae8fc;strokeColor=#6c8ebf;" edge="1" parent="1">
          <mxGeometry width="50" height="50" relative="1" as="geometry">
            <mxPoint x="341.47" y="-560" as="sourcePoint" />
            <mxPoint x="341.47" y="-820" as="targetPoint" />
          </mxGeometry>
        </mxCell>
        <mxCell id="pyCcSY5dYi0iwdxOa_U7-19" value="" style="endArrow=none;dashed=1;html=1;dashPattern=1 3;strokeWidth=1;opacity=90;fillColor=#dae8fc;strokeColor=#6c8ebf;" edge="1" parent="1">
          <mxGeometry width="50" height="50" relative="1" as="geometry">
            <mxPoint x="380" y="-560" as="sourcePoint" />
            <mxPoint x="380" y="-820" as="targetPoint" />
          </mxGeometry>
        </mxCell>
        <mxCell id="pyCcSY5dYi0iwdxOa_U7-21" value="" style="rounded=0;whiteSpace=wrap;html=1;dashed=1;strokeColor=#b85450;fillColor=#f8cecc;opacity=50;" vertex="1" parent="1">
          <mxGeometry x="340" y="-820" width="40" height="70" as="geometry" />
        </mxCell>
        <mxCell id="pyCcSY5dYi0iwdxOa_U7-22" value="" style="rounded=0;whiteSpace=wrap;html=1;dashed=1;strokeColor=#b85450;fillColor=#f8cecc;opacity=50;" vertex="1" parent="1">
          <mxGeometry x="341.47" y="-679" width="40" height="119" as="geometry" />
        </mxCell>
      </root>
    </mxGraphModel>
  </diagram>
</mxfile>
